
        <svg xmlns="http://www.w3.org/2000/svg" xmlns:xlink="http://www.w3.org/1999/xlink" version="1.1" width="3285.714285714286" 
        height="2871.4285714285716" viewBox="0 0 3285.714285714286 2871.4285714285716">
			
			<g transform="scale(14.285714285714286) translate(10, 10)">
				<defs id="SvgjsDefs1342"></defs><g id="SvgjsG1343" featureKey="rootContainer" transform="matrix(1,0,0,1,0,0)" fill="#000000"><rect y="0" height="1" width="1" opacity="0"></rect><rect y="176" width="210" height="5"></rect></g><g id="SvgjsG1344" featureKey="symbolFeature-0" transform="matrix(0.72,0,0,0.72,69,18)" fill="#000000"><defs xmlns="http://www.w3.org/2000/svg"></defs><title xmlns="http://www.w3.org/2000/svg">Asset 832ldpi</title><g xmlns="http://www.w3.org/2000/svg" data-name="Layer 2"><g data-name="Layer 1"><rect width="100" height="100" style="fill: none;"></rect><path d="M87.77,55.58c2.49-5.2,5.07-10.56,5.07-20,0-11.62-5-20.93-14.34-26.92C64.64-.19,45,.69,33.6,6,18.37,13.09,15.15,25.36,14.77,27.06,13,32.6,15,38.8,16.35,41.94,6.61,52.74,7.06,56.37,7.21,57.56a4.22,4.22,0,0,0,1.84,3,17.28,17.28,0,0,0,5.58,2.52l-.08,3.25a14.39,14.39,0,0,0,2.26,8.1l.66,1.05c-.27,6.31,1.45,16.29,9.62,17.55,3.93.6,10.07-1.39,16.55-4.58C46,93.84,61,98,72.14,98a32.63,32.63,0,0,0,5.44-.41c7.49-1.28,8.81-5.29,8.93-7.57.06-1.17-.38-2.63-1.31-5.55C84,80.7,82.17,75,82.68,71.25A47.1,47.1,0,0,1,87.77,55.58ZM80.35,86a34.56,34.56,0,0,1,1.08,3.73c-.09,1.62-2.44,2.4-4.4,2.77-10,1.87-26.13-2.86-28.51-5.75h0c1.47-1,3.63-2.69,6-4.56a84.42,84.42,0,0,0,12.3-9.65,2.69,2.69,0,0,0-3.6-4c-2.67,2.21-7.66,6.32-11.91,9.69C42.43,84,32.37,88.72,27.86,88c-6-.92-5.27-12.88-5.26-13l.06-.85L21.1,71.73a9.31,9.31,0,0,1-1.46-5.25l.13-5.54.09-2.09a.64.64,0,0,0-.7-.67l-2.08.16a9.45,9.45,0,0,1-4.79-1.72c.25-1.38,2.43-5.28,7.84-11.28A5,5,0,0,0,21,40c-.88-2.08-2.77-7.37-1.39-11.51l.08-.31c.1-.46,2.44-11.28,16-17.6,10.19-4.74,27.68-5.54,40,2.32,8,5.08,12,12.69,12,22.63,0,8.29-2.12,12.7-4.57,17.8a52.17,52.17,0,0,0-5.55,17.2C77,75.46,78.92,81.56,80.35,86Z"></path><path d="M66.47,25a1.86,1.86,0,0,0-2.63,2.64l6.71,6.7-6.71,6.71a1.87,1.87,0,0,0,0,2.63,1.87,1.87,0,0,0,2.63,0l8-8a2,2,0,0,0,0-2.74Z"></path><path d="M44.6,25A1.92,1.92,0,0,0,42,25l-8,8a1.91,1.91,0,0,0-.57,1.37A2,2,0,0,0,34,35.74l8,8a1.86,1.86,0,0,0,2.64-2.63l-6.71-6.71,6.71-6.7A1.88,1.88,0,0,0,44.6,25Z"></path><path d="M58.88,20.77a1.86,1.86,0,0,0-2.36,1.16L48.4,45.61A1.84,1.84,0,0,0,48.49,47a1.87,1.87,0,0,0,1.07.94,1.76,1.76,0,0,0,.6.1,1.85,1.85,0,0,0,1.76-1.26L60,23.13A1.86,1.86,0,0,0,58.88,20.77Z"></path></g></g></g><g id="SvgjsG1345" featureKey="nameFeature-0" transform="matrix(1.509596715395121,0,0,1.509596715395121,0.0000010797477117026718,92.85098327105393)" fill="#000000"><path d="M9.24 21.2 l-2.72 0 l0 12.76 c0 1.2 1 2.16 2.2 2.16 l0 3.84 c-3.32 0 -6 -2.68 -6 -6 l0 -12.76 l-2.72 0 l0 -3.84 l2.72 0 l0 -6 l3.8 0 l0 6 l2.72 0 l0 3.84 z M16.507 17.36 c2.84 0 5.16 2.28 5.16 5.12 l0 17.48 l-3.8 0 l0 -17.48 c0 -0.72 -0.6 -1.36 -1.36 -1.36 l-1.48 0 l0 18.84 l-3.8 0 l0 -28.52 l3.8 0 l0 5.92 l1.48 0 z M29.294 39.92 c-2.88 0 -5.2 -2.36 -5.2 -5.24 l0 -12.48 c0 -2.64 2.16 -4.8 4.8 -4.8 l0.84 0 c2.64 0 4.8 2.16 4.8 4.8 l0 5.24 l-6.72 0.12 l0 7.12 c0 0.84 0.64 1.52 1.48 1.52 s1.52 -0.68 1.52 -1.52 l0 -2.48 l3.72 0 l0 2.48 c0 2.88 -2.36 5.24 -5.24 5.24 z M29.734 21.08 l-0.84 0 c-0.6 0 -1.08 0.52 -1.08 1.12 l0 1.68 l3 -0.08 l0 -1.6 c0 -0.6 -0.48 -1.12 -1.08 -1.12 z M51.068 40 l-0.8 0 c-2.68 0 -4.88 -2.16 -4.88 -4.84 l0.08 -13.12 c0 -2.68 2.2 -4.84 4.88 -4.84 l0.8 0 c2.68 0 4.88 2.16 4.88 4.84 l0 3.2 l-3.76 0 l0 -3.2 c0 -0.6 -0.48 -1.08 -1.12 -1.08 l-0.8 0 c-0.64 0 -1.12 0.48 -1.12 1.08 l-0.08 13.12 c0 0.6 0.48 1.08 1.12 1.08 l0.8 0 c0.64 0 1.12 -0.48 1.12 -1.08 l0 -3.76 l3.76 0 l0 3.76 c0 2.68 -2.16 4.84 -4.88 4.84 z M63.855 40.04 c-3 0 -5.4 -2.44 -5.4 -5.4 l0 -11.88 c0 -2.96 2.4 -5.4 5.4 -5.4 c2.96 0 5.36 2.44 5.36 5.4 l0 11.88 c0 2.96 -2.4 5.4 -5.36 5.4 z M63.855 21.2 c-0.88 0 -1.56 0.72 -1.56 1.56 l0 11.88 c0 0.88 0.68 1.56 1.56 1.56 c0.84 0 1.56 -0.68 1.56 -1.56 l0 -11.88 c0 -0.84 -0.72 -1.56 -1.56 -1.56 z M82.002 17.36 c2.6 0 4.72 2.12 4.72 4.72 l0 17.8 l-3.76 0 l0 -17.8 c0 -0.52 -0.44 -0.92 -0.96 -0.92 s-0.92 0.4 -0.92 0.92 l0 17.8 l-3.8 0 l0 -17.8 c0 -0.52 -0.4 -0.92 -0.92 -0.92 s-0.96 0.4 -0.96 0.92 l0 18 l-3.76 0 l0 -23.48 l3.76 0 l0 0.88 c0.32 -0.08 0.64 -0.12 0.96 -0.12 c1.04 0 2.04 0.36 2.84 0.96 c0.76 -0.6 1.76 -0.96 2.8 -0.96 z M92.949 39.92 l0 6.92 l-3.8 0 l0 -29.48 l5.92 0 c2.64 0 4.76 2.12 4.76 4.76 l0 13.04 c0 2.6 -2.12 4.76 -4.76 4.76 l-2.12 0 z M92.949 21.16 l0 14.96 l2.12 0 c0.56 0 0.96 -0.44 0.96 -0.96 l0 -13.04 c0 -0.52 -0.4 -0.96 -0.96 -0.96 l-2.12 0 z M112.176 32.76 l0 7.2 l-3.68 0 l0 -0.12 c-0.36 0.08 -0.72 0.12 -1.12 0.12 c-2.8 0 -5.04 -2.24 -5.04 -5.04 l0 -4.28 c0 -1.12 0.44 -2.16 1.24 -2.96 c0.76 -0.76 1.8 -1.2 2.92 -1.2 l1.92 0 l0 -4.32 c0 -0.6 -0.52 -1.12 -1.12 -1.12 l-0.2 0 c-0.64 0 -1.12 0.52 -1.12 1.12 l0 3.04 l-3.72 0 l0 -3.04 c0 -2.68 2.16 -4.84 4.84 -4.84 l0.2 0 c2.68 0 4.84 2.16 4.84 4.84 z M107.376 36.24 c0.6 0 1.12 -0.48 1.12 -1.08 l-0.04 -4.92 l-1.96 -0.04 c-0.16 0 -0.24 0.08 -0.32 0.12 c-0.04 0.08 -0.12 0.16 -0.12 0.32 l0 4.28 c0 0.72 0.6 1.32 1.32 1.32 z M119.40299999999999 17.36 c2.64 0 4.8 2.16 4.8 4.8 l0 18 l-3.84 0 l0 -18 c0 -0.52 -0.44 -0.96 -0.96 -0.96 s-0.96 0.44 -0.96 0.96 l0 18 l-3.84 0 l0 -23.52 l3.84 0 l0 0.84 c0.32 -0.08 0.64 -0.12 0.96 -0.12 z M135.15 17.36 l3.96 0 l-5.64 23.4 s-0.88 5.6 -6.2 5.72 l-0.16 0 l0 0 l0 0 l0 0 l0 -3.88 c0.4 0 0.84 -0.12 1.24 -0.32 c0 0 1.92 -0.56 1.52 -4 l-5.04 -20.92 l4 0 l3.16 13.08 z"></path></g>
			</g>
		</svg>
	